<svg xmlns="http://www.w3.org/2000/svg" viewBox="0 0 320 240" role="img" aria-label="Hatched sphere study"><circle cx="160" cy="120" r="86" fill="none" stroke="#0b1fd6" stroke-width="1.2"/><g stroke="#0b1fd6" stroke-width="0.65" stroke-linecap="round"><line x1="131.4" y1="40.0" x2="188.6" y2="40.0"/><line x1="111.1" y1="51.4" x2="208.9" y2="51.4"/><line x1="99.3" y1="62.2" x2="220.7" y2="62.2"/><line x1="91.3" y1="72.5" x2="228.7" y2="72.5"/><line x1="85.7" y1="82.3" x2="234.3" y2="82.3"/><line x1="81.8" y1="91.7" x2="238.2" y2="91.7"/><line x1="79.2" y1="100.5" x2="240.8" y2="100.5"/><line x1="77.7" y1="108.9" x2="242.3" y2="108.9"/><line x1="77.1" y1="116.9" x2="242.9" y2="116.9"/><line x1="77.1" y1="124.5" x2="242.9" y2="124.5"/><line x1="77.8" y1="131.7" x2="242.2" y2="131.7"/><line x1="79.0" y1="138.6" x2="241.0" y2="138.6"/><line x1="80.8" y1="145.1" x2="239.2" y2="145.1"/><line x1="82.9" y1="151.4" x2="237.1" y2="151.4"/><line x1="85.5" y1="157.3" x2="234.5" y2="157.3"/><line x1="88.4" y1="162.9" x2="231.6" y2="162.9"/><line x1="91.8" y1="168.2" x2="228.2" y2="168.2"/><line x1="95.5" y1="173.3" x2="224.5" y2="173.3"/><line x1="99.6" y1="178.1" x2="220.4" y2="178.1"/><line x1="104.1" y1="182.7" x2="215.9" y2="182.7"/><line x1="109.1" y1="187.0" x2="210.9" y2="187.0"/><line x1="114.7" y1="191.2" x2="205.3" y2="191.2"/><line x1="121.1" y1="195.1" x2="198.9" y2="195.1"/><line x1="128.6" y1="198.8" x2="191.4" y2="198.8"/><line x1="138.3" y1="202.4" x2="181.7" y2="202.4"/></g><rect x="8" y="8" width="304" height="224" fill="none" stroke="#0b1fd6" stroke-width="1.1"/></svg>